<svg width="140" height="29" viewBox="0 0 140 29" fill="none" xmlns="http://www.w3.org/2000/svg">
<path d="M7.16316 5.38326C8.96208 5.38326 10.4191 6.84031 10.4191 8.63924V9.29043C10.4191 9.64859 10.1261 9.94163 9.76794 9.94163C7.96901 9.94163 6.51196 8.48458 6.51196 6.68565V6.03445C6.51196 5.67629 6.805 5.38326 7.16316 5.38326ZM2.27919 6.68565H4.23277C4.77408 6.68565 5.20957 7.12113 5.20957 7.66244C5.20957 8.20375 4.77408 8.63924 4.23277 8.63924H2.27919C1.73788 8.63924 1.30239 8.20375 1.30239 7.66244C1.30239 7.12113 1.73788 6.68565 2.27919 6.68565ZM0.976794 9.61603H5.53517C6.07647 9.61603 6.51196 10.0515 6.51196 10.5928C6.51196 11.1341 6.07647 11.5696 5.53517 11.5696H0.976794C0.435487 11.5696 0 11.1341 0 10.5928C0 10.0515 0.435487 9.61603 0.976794 9.61603ZM1.30239 13.5232C1.30239 12.9819 1.73788 12.5464 2.27919 12.5464H4.23277C4.77408 12.5464 5.20957 12.9819 5.20957 13.5232C5.20957 14.0645 4.77408 14.5 4.23277 14.5H2.27919C1.73788 14.5 1.30239 14.0645 1.30239 13.5232ZM11.0703 6.03445C11.0703 5.67629 11.3634 5.38326 11.7215 5.38326C13.5205 5.38326 14.9775 6.84031 14.9775 8.63924V9.29043C14.9775 9.64859 14.6845 9.94163 14.3263 9.94163C12.5274 9.94163 11.0703 8.48458 11.0703 6.68565V6.03445ZM16.2799 5.38326C18.0788 5.38326 19.5359 6.84031 19.5359 8.63924V9.29043C19.5359 9.64859 19.2428 9.94163 18.8847 9.94163C17.0858 9.94163 15.6287 8.48458 15.6287 6.68565V6.03445C15.6287 5.67629 15.9217 5.38326 16.2799 5.38326ZM19.5359 11.8952V12.5464C19.5359 14.3453 18.0788 15.8024 16.2799 15.8024C15.9217 15.8024 15.6287 15.5094 15.6287 15.1512V14.5C15.6287 12.7011 17.0858 11.244 18.8847 11.244C19.2428 11.244 19.5359 11.5371 19.5359 11.8952ZM14.3263 11.244C14.6845 11.244 14.9775 11.5371 14.9775 11.8952V12.5464C14.9775 14.3453 13.5205 15.8024 11.7215 15.8024C11.3634 15.8024 11.0703 15.5094 11.0703 15.1512V14.5C11.0703 12.7011 12.5274 11.244 14.3263 11.244ZM10.4191 11.8952V12.5464C10.4191 14.3453 8.96208 15.8024 7.16316 15.8024C6.805 15.8024 6.51196 15.5094 6.51196 15.1512V14.5C6.51196 12.7011 7.96901 11.244 9.76794 11.244C10.1261 11.244 10.4191 11.5371 10.4191 11.8952ZM0.142449 18.2281C0.0651196 17.6298 0.529097 17.1048 1.13145 17.1048H19.7068C20.3092 17.1048 20.7732 17.6298 20.6999 18.2281C20.4435 20.2712 18.8928 21.8667 16.9311 22.233V22.3144C16.9311 23.0347 16.3491 23.6167 15.6287 23.6167H5.20957C4.48918 23.6167 3.90718 23.0347 3.90718 22.3144V22.233C1.94545 21.8667 0.394788 20.2712 0.142449 18.2281Z" fill="#F39D1A"/>
<path d="M26.2495 23V5.54545H32.7949C34.1358 5.54545 35.2608 5.77841 36.1699 6.24432C37.0847 6.71023 37.7751 7.36364 38.241 8.20454C38.7126 9.03977 38.9483 10.0142 38.9483 11.1278C38.9483 12.2472 38.7097 13.2187 38.2324 14.0426C37.7608 14.8608 37.0648 15.4943 36.1444 15.9432C35.2239 16.3864 34.0932 16.608 32.7523 16.608H28.0904V13.983H32.3262C33.1103 13.983 33.7523 13.875 34.2523 13.6591C34.7523 13.4375 35.1216 13.1165 35.3603 12.696C35.6046 12.2699 35.7268 11.7472 35.7268 11.1278C35.7268 10.5085 35.6046 9.98011 35.3603 9.54261C35.116 9.09943 34.7438 8.7642 34.2438 8.53693C33.7438 8.30398 33.0989 8.1875 32.3091 8.1875H29.4114V23H26.2495ZM35.2665 15.0909L39.5876 23H36.0591L31.8148 15.0909H35.2665ZM47.3304 23.2557C46.018 23.2557 44.8844 22.983 43.9299 22.4375C42.981 21.8864 42.2509 21.108 41.7395 20.1023C41.2282 19.0909 40.9725 17.9006 40.9725 16.5312C40.9725 15.1847 41.2282 14.0028 41.7395 12.9858C42.2566 11.9631 42.9782 11.1676 43.9043 10.5994C44.8304 10.0256 45.9185 9.73864 47.1685 9.73864C47.9753 9.73864 48.7367 9.86932 49.4526 10.1307C50.1742 10.3864 50.8106 10.7841 51.3617 11.3239C51.9185 11.8636 52.356 12.5511 52.6742 13.3864C52.9924 14.2159 53.1515 15.2045 53.1515 16.3523V17.2983H42.4214V15.2188H50.1941C50.1884 14.6278 50.0606 14.1023 49.8106 13.642C49.5606 13.1761 49.2111 12.8097 48.7623 12.5426C48.3191 12.2756 47.802 12.142 47.2111 12.142C46.5805 12.142 46.0265 12.2955 45.5492 12.6023C45.0719 12.9034 44.6998 13.3011 44.4327 13.7955C44.1714 14.2841 44.0378 14.821 44.0322 15.4062V17.2216C44.0322 17.983 44.1714 18.6364 44.4498 19.1818C44.7282 19.7216 45.1174 20.1364 45.6174 20.4261C46.1174 20.7102 46.7026 20.8523 47.3731 20.8523C47.8219 20.8523 48.2282 20.7898 48.5918 20.6648C48.9555 20.5341 49.2708 20.3438 49.5378 20.0938C49.8049 19.8438 50.0066 19.5341 50.143 19.1648L53.0236 19.4886C52.8418 20.25 52.4952 20.9148 51.9839 21.483C51.4782 22.0455 50.8305 22.483 50.0407 22.7955C49.2509 23.1023 48.3475 23.2557 47.3304 23.2557ZM61.4718 23.2557C60.165 23.2557 59.0428 22.9688 58.1053 22.3949C57.1735 21.821 56.4547 21.0284 55.9491 20.017C55.4491 19 55.1991 17.8295 55.1991 16.5057C55.1991 15.1761 55.4547 14.0028 55.9661 12.9858C56.4775 11.9631 57.1991 11.1676 58.1309 10.5994C59.0684 10.0256 60.1763 9.73864 61.4547 9.73864C62.5172 9.73864 63.4576 9.93466 64.2758 10.3267C65.0996 10.7131 65.7559 11.2614 66.2445 11.9716C66.7331 12.6761 67.0116 13.5 67.0797 14.4432H64.1309C64.0116 13.8125 63.7275 13.2869 63.2786 12.8665C62.8354 12.4403 62.2417 12.2273 61.4974 12.2273C60.8667 12.2273 60.3127 12.3977 59.8354 12.7386C59.3581 13.0739 58.986 13.5568 58.7189 14.1875C58.4576 14.8182 58.3269 15.5739 58.3269 16.4545C58.3269 17.3466 58.4576 18.1136 58.7189 18.7557C58.9803 19.392 59.3468 19.8835 59.8184 20.2301C60.2956 20.571 60.8553 20.7415 61.4974 20.7415C61.9519 20.7415 62.3581 20.6562 62.7161 20.4858C63.0797 20.3097 63.3837 20.0568 63.628 19.7273C63.8724 19.3977 64.04 18.9972 64.1309 18.5256H67.0797C67.0059 19.4517 66.7331 20.2727 66.2616 20.9886C65.79 21.6989 65.1479 22.2557 64.3354 22.6591C63.5229 23.0568 62.5684 23.2557 61.4718 23.2557ZM69.6131 23V9.90909H72.6983V23H69.6131ZM71.1643 8.05114C70.6756 8.05114 70.2552 7.8892 69.9029 7.56534C69.5506 7.23579 69.3745 6.84091 69.3745 6.38068C69.3745 5.91477 69.5506 5.51989 69.9029 5.19602C70.2552 4.86648 70.6756 4.7017 71.1643 4.7017C71.6586 4.7017 72.079 4.86648 72.4256 5.19602C72.7779 5.51989 72.954 5.91477 72.954 6.38068C72.954 6.84091 72.7779 7.23579 72.4256 7.56534C72.079 7.8892 71.6586 8.05114 71.1643 8.05114ZM75.8709 27.9091V9.90909H78.905V12.0739H79.084C79.2431 11.7557 79.4675 11.4176 79.7573 11.0597C80.0471 10.696 80.4391 10.3864 80.9334 10.1307C81.4278 9.86932 82.0584 9.73864 82.8255 9.73864C83.8368 9.73864 84.7488 9.99716 85.5613 10.5142C86.3795 11.0256 87.0272 11.7841 87.5045 12.7898C87.9874 13.7898 88.2289 15.017 88.2289 16.4716C88.2289 17.9091 87.9931 19.1307 87.5215 20.1364C87.0499 21.142 86.4079 21.9091 85.5954 22.4375C84.7829 22.9659 83.8624 23.2301 82.834 23.2301C82.084 23.2301 81.4618 23.1051 80.9675 22.8551C80.4732 22.6051 80.0755 22.304 79.7743 21.9517C79.4789 21.5937 79.2488 21.2557 79.084 20.9375H78.9562V27.9091H75.8709ZM78.8965 16.4545C78.8965 17.3011 79.0158 18.0426 79.2545 18.679C79.4988 19.3153 79.8482 19.8125 80.3028 20.1705C80.763 20.5227 81.3198 20.6989 81.9732 20.6989C82.655 20.6989 83.226 20.517 83.6863 20.1534C84.1465 19.7841 84.4931 19.2812 84.726 18.6449C84.9647 18.0028 85.084 17.2727 85.084 16.4545C85.084 15.642 84.9675 14.9205 84.7346 14.2898C84.5016 13.6591 84.155 13.1648 83.6948 12.8068C83.2346 12.4489 82.6607 12.2699 81.9732 12.2699C81.3141 12.2699 80.7545 12.4432 80.2942 12.7898C79.834 13.1364 79.4846 13.6222 79.2459 14.2472C79.013 14.8722 78.8965 15.608 78.8965 16.4545ZM96.6664 23.2557C95.3539 23.2557 94.2204 22.983 93.2658 22.4375C92.317 21.8864 91.5868 21.108 91.0755 20.1023C90.5641 19.0909 90.3084 17.9006 90.3084 16.5312C90.3084 15.1847 90.5641 14.0028 91.0755 12.9858C91.5925 11.9631 92.3141 11.1676 93.2403 10.5994C94.1664 10.0256 95.2545 9.73864 96.5045 9.73864C97.3113 9.73864 98.0726 9.86932 98.7885 10.1307C99.5101 10.3864 100.147 10.7841 100.698 11.3239C101.254 11.8636 101.692 12.5511 102.01 13.3864C102.328 14.2159 102.487 15.2045 102.487 16.3523V17.2983H91.7573V15.2188H99.53C99.5243 14.6278 99.3965 14.1023 99.1465 13.642C98.8965 13.1761 98.5471 12.8097 98.0982 12.5426C97.655 12.2756 97.138 12.142 96.5471 12.142C95.9164 12.142 95.3624 12.2955 94.8851 12.6023C94.4079 12.9034 94.0357 13.3011 93.7687 13.7955C93.5073 14.2841 93.3738 14.821 93.3681 15.4062V17.2216C93.3681 17.983 93.5073 18.6364 93.7857 19.1818C94.0641 19.7216 94.4533 20.1364 94.9533 20.4261C95.4533 20.7102 96.0385 20.8523 96.709 20.8523C97.1579 20.8523 97.5641 20.7898 97.9278 20.6648C98.2914 20.5341 98.6067 20.3438 98.8738 20.0938C99.1408 19.8438 99.3425 19.5341 99.4789 19.1648L102.36 19.4886C102.178 20.25 101.831 20.9148 101.32 21.483C100.814 22.0455 100.166 22.483 99.3766 22.7955C98.5868 23.1023 97.6834 23.2557 96.6664 23.2557ZM109.955 23.2301C108.927 23.2301 108.007 22.9659 107.194 22.4375C106.382 21.9091 105.74 21.142 105.268 20.1364C104.796 19.1307 104.561 17.9091 104.561 16.4716C104.561 15.017 104.799 13.7898 105.276 12.7898C105.759 11.7841 106.41 11.0256 107.228 10.5142C108.046 9.99716 108.958 9.73864 109.964 9.73864C110.731 9.73864 111.362 9.86932 111.856 10.1307C112.35 10.3864 112.742 10.696 113.032 11.0597C113.322 11.4176 113.546 11.7557 113.705 12.0739H113.833V5.54545H116.927V23H113.893V20.9375H113.705C113.546 21.2557 113.316 21.5937 113.015 21.9517C112.714 22.304 112.316 22.6051 111.822 22.8551C111.328 23.1051 110.705 23.2301 109.955 23.2301ZM110.816 20.6989C111.47 20.6989 112.026 20.5227 112.487 20.1705C112.947 19.8125 113.296 19.3153 113.535 18.679C113.774 18.0426 113.893 17.3011 113.893 16.4545C113.893 15.608 113.774 14.8722 113.535 14.2472C113.302 13.6222 112.955 13.1364 112.495 12.7898C112.041 12.4432 111.481 12.2699 110.816 12.2699C110.129 12.2699 109.555 12.4489 109.095 12.8068C108.634 13.1648 108.288 13.6591 108.055 14.2898C107.822 14.9205 107.705 15.642 107.705 16.4545C107.705 17.2727 107.822 18.0028 108.055 18.6449C108.294 19.2812 108.643 19.7841 109.103 20.1534C109.569 20.517 110.14 20.6989 110.816 20.6989ZM120.215 23V9.90909H123.3V23H120.215ZM121.766 8.05114C121.277 8.05114 120.857 7.8892 120.504 7.56534C120.152 7.23579 119.976 6.84091 119.976 6.38068C119.976 5.91477 120.152 5.51989 120.504 5.19602C120.857 4.86648 121.277 4.7017 121.766 4.7017C122.26 4.7017 122.681 4.86648 123.027 5.19602C123.379 5.51989 123.556 5.91477 123.556 6.38068C123.556 6.84091 123.379 7.23579 123.027 7.56534C122.681 7.8892 122.26 8.05114 121.766 8.05114ZM130.24 23.2642C129.41 23.2642 128.663 23.1165 127.998 22.821C127.339 22.5199 126.816 22.0767 126.43 21.4915C126.049 20.9062 125.859 20.1847 125.859 19.3267C125.859 18.5881 125.995 17.9773 126.268 17.4943C126.541 17.0114 126.913 16.625 127.384 16.3352C127.856 16.0455 128.387 15.8267 128.978 15.679C129.575 15.5256 130.191 15.4148 130.828 15.3466C131.595 15.267 132.217 15.196 132.694 15.1335C133.171 15.0653 133.518 14.9631 133.734 14.8267C133.955 14.6847 134.066 14.4659 134.066 14.1705V14.1193C134.066 13.4773 133.876 12.9801 133.495 12.6278C133.115 12.2756 132.566 12.0994 131.85 12.0994C131.095 12.0994 130.495 12.2642 130.052 12.5938C129.615 12.9233 129.319 13.3125 129.166 13.7614L126.285 13.3523C126.512 12.5568 126.887 11.892 127.41 11.358C127.933 10.8182 128.572 10.4148 129.328 10.1477C130.083 9.875 130.919 9.73864 131.833 9.73864C132.464 9.73864 133.092 9.8125 133.717 9.96023C134.342 10.108 134.913 10.3523 135.43 10.6932C135.947 11.0284 136.362 11.4858 136.674 12.0653C136.992 12.6449 137.151 13.3693 137.151 14.2386V23H134.186V21.2017H134.083C133.896 21.5653 133.632 21.9062 133.291 22.2244C132.955 22.5369 132.532 22.7898 132.021 22.983C131.515 23.1705 130.921 23.2642 130.24 23.2642ZM131.041 20.9972C131.66 20.9972 132.197 20.875 132.651 20.6307C133.106 20.3807 133.455 20.0511 133.7 19.642C133.95 19.233 134.075 18.7869 134.075 18.304V16.7614C133.978 16.8409 133.813 16.9148 133.58 16.983C133.353 17.0511 133.097 17.1108 132.813 17.1619C132.529 17.2131 132.248 17.2585 131.97 17.2983C131.691 17.3381 131.45 17.3722 131.245 17.4006C130.785 17.4631 130.373 17.5653 130.009 17.7074C129.646 17.8494 129.359 18.0483 129.149 18.304C128.938 18.554 128.833 18.8778 128.833 19.2756C128.833 19.8438 129.041 20.2727 129.455 20.5625C129.87 20.8523 130.399 20.9972 131.041 20.9972Z" fill="#046E1B"/>
</svg>
